<svg xmlns="http://www.w3.org/2000/svg" version="1.1" xmlns:xlink="http://www.w3.org/1999/xlink" xmlns:svgjs="http://svgjs.dev/svgjs" width="1440" height="560" preserveAspectRatio="none" viewBox="0 0 1440 560"><g mask="url(&quot;#SvgjsMask1038&quot;)" fill="none"><path d="M-46.7 372.16L-46.7 372.16" stroke="rgba(86, 10, 168, 1)" stroke-width="1.5"></path><path d="M-46.7 372.16L-107.28 488.43" stroke="rgba(86, 10, 168, 1)" stroke-width="1.5"></path><path d="M-46.7 372.16L108.39 545.64" stroke="rgba(86, 10, 168, 1)" stroke-width="1.5"></path><path d="M-46.7 372.16L194.75 383.59" stroke="rgba(86, 10, 168, 1)" stroke-width="1.5"></path><path d="M-46.7 372.16L188.98 544.06" stroke="rgba(86, 10, 168, 1)" stroke-width="1.5"></path><path d="M-46.7 372.16L54.37 670.8" stroke="rgba(86, 10, 168, 1)" stroke-width="1.5"></path><path d="M-107.28 488.43L-107.28 488.43" stroke="rgba(86, 10, 168, 1)" stroke-width="1.5"></path><path d="M-93.82 707.48L-93.82 707.48" stroke="rgba(86, 10, 168, 1)" stroke-width="1.5"></path><path d="M-93.82 707.48L54.37 670.8" stroke="rgba(86, 10, 168, 1)" stroke-width="1.5"></path><path d="M-93.82 707.48L-107.28 488.43" stroke="rgba(86, 10, 168, 1)" stroke-width="1.5"></path><path d="M108.39 545.64L108.39 545.64" stroke="rgba(86, 10, 168, 1)" stroke-width="1.5"></path><path d="M108.39 545.64L188.98 544.06" stroke="rgba(86, 10, 168, 1)" stroke-width="1.5"></path><path d="M108.39 545.64L54.37 670.8" stroke="rgba(86, 10, 168, 1)" stroke-width="1.5"></path><path d="M108.39 545.64L194.75 383.59" stroke="rgba(86, 10, 168, 1)" stroke-width="1.5"></path><path d="M54.37 670.8L54.37 670.8" stroke="rgba(86, 10, 168, 1)" stroke-width="1.5"></path><path d="M54.37 670.8L188.98 544.06" stroke="rgba(86, 10, 168, 1)" stroke-width="1.5"></path><path d="M54.37 670.8L-107.28 488.43" stroke="rgba(86, 10, 168, 1)" stroke-width="1.5"></path><path d="M194.75 383.59L194.75 383.59" stroke="rgba(86, 10, 168, 1)" stroke-width="1.5"></path><path d="M194.75 383.59L188.98 544.06" stroke="rgba(86, 10, 168, 1)" stroke-width="1.5"></path><path d="M188.98 544.06L188.98 544.06" stroke="rgba(86, 10, 168, 1)" stroke-width="1.5"></path><path d="M379.73 387.48L379.73 387.48" stroke="rgba(86, 10, 168, 1)" stroke-width="1.5"></path><path d="M379.73 387.48L349.55 522.74" stroke="rgba(86, 10, 168, 1)" stroke-width="1.5"></path><path d="M379.73 387.48L513.64 341" stroke="rgba(86, 10, 168, 1)" stroke-width="1.5"></path><path d="M379.73 387.48L194.75 383.59" stroke="rgba(86, 10, 168, 1)" stroke-width="1.5"></path><path d="M379.73 387.48L550.79 539.33" stroke="rgba(86, 10, 168, 1)" stroke-width="1.5"></path><path d="M379.73 387.48L188.98 544.06" stroke="rgba(86, 10, 168, 1)" stroke-width="1.5"></path><path d="M349.55 522.74L349.55 522.74" stroke="rgba(86, 10, 168, 1)" stroke-width="1.5"></path><path d="M349.55 522.74L359.14 647.7" stroke="rgba(86, 10, 168, 1)" stroke-width="1.5"></path><path d="M349.55 522.74L188.98 544.06" stroke="rgba(86, 10, 168, 1)" stroke-width="1.5"></path><path d="M349.55 522.74L491.01 639.88" stroke="rgba(86, 10, 168, 1)" stroke-width="1.5"></path><path d="M349.55 522.74L550.79 539.33" stroke="rgba(86, 10, 168, 1)" stroke-width="1.5"></path><path d="M349.55 522.74L194.75 383.59" stroke="rgba(86, 10, 168, 1)" stroke-width="1.5"></path><path d="M359.14 647.7L359.14 647.7" stroke="rgba(86, 10, 168, 1)" stroke-width="1.5"></path><path d="M359.14 647.7L491.01 639.88" stroke="rgba(86, 10, 168, 1)" stroke-width="1.5"></path><path d="M359.14 647.7L188.98 544.06" stroke="rgba(86, 10, 168, 1)" stroke-width="1.5"></path><path d="M359.14 647.7L550.79 539.33" stroke="rgba(86, 10, 168, 1)" stroke-width="1.5"></path><path d="M359.14 647.7L379.73 387.48" stroke="rgba(86, 10, 168, 1)" stroke-width="1.5"></path><path d="M359.14 647.7L108.39 545.64" stroke="rgba(86, 10, 168, 1)" stroke-width="1.5"></path><path d="M513.64 341L513.64 341" stroke="rgba(86, 10, 168, 1)" stroke-width="1.5"></path><path d="M513.64 341L638.26 357.91" stroke="rgba(86, 10, 168, 1)" stroke-width="1.5"></path><path d="M513.64 341L682.62 236.18" stroke="rgba(86, 10, 168, 1)" stroke-width="1.5"></path><path d="M513.64 341L550.79 539.33" stroke="rgba(86, 10, 168, 1)" stroke-width="1.5"></path><path d="M550.79 539.33L550.79 539.33" stroke="rgba(86, 10, 168, 1)" stroke-width="1.5"></path><path d="M550.79 539.33L491.01 639.88" stroke="rgba(86, 10, 168, 1)" stroke-width="1.5"></path><path d="M550.79 539.33L693.11 487.55" stroke="rgba(86, 10, 168, 1)" stroke-width="1.5"></path><path d="M550.79 539.33L641.44 709.94" stroke="rgba(86, 10, 168, 1)" stroke-width="1.5"></path><path d="M491.01 639.88L491.01 639.88" stroke="rgba(86, 10, 168, 1)" stroke-width="1.5"></path><path d="M491.01 639.88L641.44 709.94" stroke="rgba(86, 10, 168, 1)" stroke-width="1.5"></path><path d="M491.01 639.88L693.11 487.55" stroke="rgba(86, 10, 168, 1)" stroke-width="1.5"></path><path d="M682.62 236.18L682.62 236.18" stroke="rgba(86, 10, 168, 1)" stroke-width="1.5"></path><path d="M682.62 236.18L638.26 357.91" stroke="rgba(86, 10, 168, 1)" stroke-width="1.5"></path><path d="M682.62 236.18L819.66 214.51" stroke="rgba(86, 10, 168, 1)" stroke-width="1.5"></path><path d="M682.62 236.18L835.97 378.08" stroke="rgba(86, 10, 168, 1)" stroke-width="1.5"></path><path d="M682.62 236.18L693.11 487.55" stroke="rgba(86, 10, 168, 1)" stroke-width="1.5"></path><path d="M682.62 236.18L940.09 355.69" stroke="rgba(86, 10, 168, 1)" stroke-width="1.5"></path><path d="M638.26 357.91L638.26 357.91" stroke="rgba(86, 10, 168, 1)" stroke-width="1.5"></path><path d="M638.26 357.91L693.11 487.55" stroke="rgba(86, 10, 168, 1)" stroke-width="1.5"></path><path d="M693.11 487.55L693.11 487.55" stroke="rgba(86, 10, 168, 1)" stroke-width="1.5"></path><path d="M693.11 487.55L847.14 519.59" stroke="rgba(86, 10, 168, 1)" stroke-width="1.5"></path><path d="M693.11 487.55L835.97 378.08" stroke="rgba(86, 10, 168, 1)" stroke-width="1.5"></path><path d="M693.11 487.55L641.44 709.94" stroke="rgba(86, 10, 168, 1)" stroke-width="1.5"></path><path d="M641.44 709.94L641.44 709.94" stroke="rgba(86, 10, 168, 1)" stroke-width="1.5"></path><path d="M641.44 709.94L846.96 673.69" stroke="rgba(86, 10, 168, 1)" stroke-width="1.5"></path><path d="M641.44 709.94L847.14 519.59" stroke="rgba(86, 10, 168, 1)" stroke-width="1.5"></path><path d="M641.44 709.94L359.14 647.7" stroke="rgba(86, 10, 168, 1)" stroke-width="1.5"></path><path d="M819.66 214.51L819.66 214.51" stroke="rgba(86, 10, 168, 1)" stroke-width="1.5"></path><path d="M819.66 214.51L835.97 378.08" stroke="rgba(86, 10, 168, 1)" stroke-width="1.5"></path><path d="M819.66 214.51L1002.91 215.72" stroke="rgba(86, 10, 168, 1)" stroke-width="1.5"></path><path d="M819.66 214.51L940.09 355.69" stroke="rgba(86, 10, 168, 1)" stroke-width="1.5"></path><path d="M835.97 378.08L835.97 378.08" stroke="rgba(86, 10, 168, 1)" stroke-width="1.5"></path><path d="M835.97 378.08L940.09 355.69" stroke="rgba(86, 10, 168, 1)" stroke-width="1.5"></path><path d="M835.97 378.08L847.14 519.59" stroke="rgba(86, 10, 168, 1)" stroke-width="1.5"></path><path d="M835.97 378.08L638.26 357.91" stroke="rgba(86, 10, 168, 1)" stroke-width="1.5"></path><path d="M847.14 519.59L847.14 519.59" stroke="rgba(86, 10, 168, 1)" stroke-width="1.5"></path><path d="M847.14 519.59L846.96 673.69" stroke="rgba(86, 10, 168, 1)" stroke-width="1.5"></path><path d="M847.14 519.59L1005.23 504.91" stroke="rgba(86, 10, 168, 1)" stroke-width="1.5"></path><path d="M846.96 673.69L846.96 673.69" stroke="rgba(86, 10, 168, 1)" stroke-width="1.5"></path><path d="M846.96 673.69L1001.25 700.57" stroke="rgba(86, 10, 168, 1)" stroke-width="1.5"></path><path d="M994.94 -70.42L994.94 -70.42" stroke="rgba(86, 10, 168, 1)" stroke-width="1.5"></path><path d="M994.94 -70.42L1137.93 -98.52" stroke="rgba(86, 10, 168, 1)" stroke-width="1.5"></path><path d="M994.94 -70.42L1001.93 102.57" stroke="rgba(86, 10, 168, 1)" stroke-width="1.5"></path><path d="M994.94 -70.42L1146.41 47.06" stroke="rgba(86, 10, 168, 1)" stroke-width="1.5"></path><path d="M994.94 -70.42L1273.39 -44.66" stroke="rgba(86, 10, 168, 1)" stroke-width="1.5"></path><path d="M994.94 -70.42L1002.91 215.72" stroke="rgba(86, 10, 168, 1)" stroke-width="1.5"></path><path d="M1001.93 102.57L1001.93 102.57" stroke="rgba(86, 10, 168, 1)" stroke-width="1.5"></path><path d="M1001.93 102.57L1002.91 215.72" stroke="rgba(86, 10, 168, 1)" stroke-width="1.5"></path><path d="M1001.93 102.57L1100.35 212.59" stroke="rgba(86, 10, 168, 1)" stroke-width="1.5"></path><path d="M1001.93 102.57L1146.41 47.06" stroke="rgba(86, 10, 168, 1)" stroke-width="1.5"></path><path d="M1001.93 102.57L819.66 214.51" stroke="rgba(86, 10, 168, 1)" stroke-width="1.5"></path><path d="M1002.91 215.72L1002.91 215.72" stroke="rgba(86, 10, 168, 1)" stroke-width="1.5"></path><path d="M1002.91 215.72L1100.35 212.59" stroke="rgba(86, 10, 168, 1)" stroke-width="1.5"></path><path d="M1002.91 215.72L940.09 355.69" stroke="rgba(86, 10, 168, 1)" stroke-width="1.5"></path><path d="M1002.91 215.72L1146.41 47.06" stroke="rgba(86, 10, 168, 1)" stroke-width="1.5"></path><path d="M940.09 355.69L940.09 355.69" stroke="rgba(86, 10, 168, 1)" stroke-width="1.5"></path><path d="M940.09 355.69L1005.23 504.91" stroke="rgba(86, 10, 168, 1)" stroke-width="1.5"></path><path d="M940.09 355.69L847.14 519.59" stroke="rgba(86, 10, 168, 1)" stroke-width="1.5"></path><path d="M940.09 355.69L1100.35 212.59" stroke="rgba(86, 10, 168, 1)" stroke-width="1.5"></path><path d="M1005.23 504.91L1005.23 504.91" stroke="rgba(86, 10, 168, 1)" stroke-width="1.5"></path><path d="M1001.25 700.57L1001.25 700.57" stroke="rgba(86, 10, 168, 1)" stroke-width="1.5"></path><path d="M1001.25 700.57L1148.85 655.79" stroke="rgba(86, 10, 168, 1)" stroke-width="1.5"></path><path d="M1001.25 700.57L1005.23 504.91" stroke="rgba(86, 10, 168, 1)" stroke-width="1.5"></path><path d="M1001.25 700.57L847.14 519.59" stroke="rgba(86, 10, 168, 1)" stroke-width="1.5"></path><path d="M1137.93 -98.52L1137.93 -98.52" stroke="rgba(86, 10, 168, 1)" stroke-width="1.5"></path><path d="M1137.93 -98.52L1273.39 -44.66" stroke="rgba(86, 10, 168, 1)" stroke-width="1.5"></path><path d="M1146.41 47.06L1146.41 47.06" stroke="rgba(86, 10, 168, 1)" stroke-width="1.5"></path><path d="M1146.41 47.06L1137.93 -98.52" stroke="rgba(86, 10, 168, 1)" stroke-width="1.5"></path><path d="M1100.35 212.59L1100.35 212.59" stroke="rgba(86, 10, 168, 1)" stroke-width="1.5"></path><path d="M1100.35 212.59L1146.41 47.06" stroke="rgba(86, 10, 168, 1)" stroke-width="1.5"></path><path d="M1100.35 212.59L1159.73 406.25" stroke="rgba(86, 10, 168, 1)" stroke-width="1.5"></path><path d="M1159.73 406.25L1159.73 406.25" stroke="rgba(86, 10, 168, 1)" stroke-width="1.5"></path><path d="M1159.73 406.25L1301.56 395.78" stroke="rgba(86, 10, 168, 1)" stroke-width="1.5"></path><path d="M1159.73 406.25L1261.1 515.39" stroke="rgba(86, 10, 168, 1)" stroke-width="1.5"></path><path d="M1159.73 406.25L1005.23 504.91" stroke="rgba(86, 10, 168, 1)" stroke-width="1.5"></path><path d="M1148.85 655.79L1148.85 655.79" stroke="rgba(86, 10, 168, 1)" stroke-width="1.5"></path><path d="M1148.85 655.79L1263.49 711.05" stroke="rgba(86, 10, 168, 1)" stroke-width="1.5"></path><path d="M1148.85 655.79L1261.1 515.39" stroke="rgba(86, 10, 168, 1)" stroke-width="1.5"></path><path d="M1273.39 -44.66L1273.39 -44.66" stroke="rgba(86, 10, 168, 1)" stroke-width="1.5"></path><path d="M1273.39 -44.66L1309.67 101.29" stroke="rgba(86, 10, 168, 1)" stroke-width="1.5"></path><path d="M1273.39 -44.66L1146.41 47.06" stroke="rgba(86, 10, 168, 1)" stroke-width="1.5"></path><path d="M1273.39 -44.66L1444.15 -78.55" stroke="rgba(86, 10, 168, 1)" stroke-width="1.5"></path><path d="M1309.67 101.29L1309.67 101.29" stroke="rgba(86, 10, 168, 1)" stroke-width="1.5"></path><path d="M1309.67 101.29L1439.63 90.17" stroke="rgba(86, 10, 168, 1)" stroke-width="1.5"></path><path d="M1309.67 101.29L1146.41 47.06" stroke="rgba(86, 10, 168, 1)" stroke-width="1.5"></path><path d="M1301.56 395.78L1301.56 395.78" stroke="rgba(86, 10, 168, 1)" stroke-width="1.5"></path><path d="M1301.56 395.78L1412.34 342.92" stroke="rgba(86, 10, 168, 1)" stroke-width="1.5"></path><path d="M1301.56 395.78L1261.1 515.39" stroke="rgba(86, 10, 168, 1)" stroke-width="1.5"></path><path d="M1261.1 515.39L1261.1 515.39" stroke="rgba(86, 10, 168, 1)" stroke-width="1.5"></path><path d="M1261.1 515.39L1388.73 541.96" stroke="rgba(86, 10, 168, 1)" stroke-width="1.5"></path><path d="M1261.1 515.39L1263.49 711.05" stroke="rgba(86, 10, 168, 1)" stroke-width="1.5"></path><path d="M1263.49 711.05L1263.49 711.05" stroke="rgba(86, 10, 168, 1)" stroke-width="1.5"></path><path d="M1263.49 711.05L1448.42 689.61" stroke="rgba(86, 10, 168, 1)" stroke-width="1.5"></path><path d="M1444.15 -78.55L1444.15 -78.55" stroke="rgba(86, 10, 168, 1)" stroke-width="1.5"></path><path d="M1444.15 -78.55L1572.29 -68.66" stroke="rgba(86, 10, 168, 1)" stroke-width="1.5"></path><path d="M1444.15 -78.55L1439.63 90.17" stroke="rgba(86, 10, 168, 1)" stroke-width="1.5"></path><path d="M1439.63 90.17L1439.63 90.17" stroke="rgba(86, 10, 168, 1)" stroke-width="1.5"></path><path d="M1439.63 90.17L1445.84 220.38" stroke="rgba(86, 10, 168, 1)" stroke-width="1.5"></path><path d="M1439.63 90.17L1604.45 54.47" stroke="rgba(86, 10, 168, 1)" stroke-width="1.5"></path><path d="M1445.84 220.38L1445.84 220.38" stroke="rgba(86, 10, 168, 1)" stroke-width="1.5"></path><path d="M1445.84 220.38L1565.94 249.66" stroke="rgba(86, 10, 168, 1)" stroke-width="1.5"></path><path d="M1445.84 220.38L1412.34 342.92" stroke="rgba(86, 10, 168, 1)" stroke-width="1.5"></path><path d="M1445.84 220.38L1309.67 101.29" stroke="rgba(86, 10, 168, 1)" stroke-width="1.5"></path><path d="M1445.84 220.38L1595.54 337.58" stroke="rgba(86, 10, 168, 1)" stroke-width="1.5"></path><path d="M1412.34 342.92L1412.34 342.92" stroke="rgba(86, 10, 168, 1)" stroke-width="1.5"></path><path d="M1388.73 541.96L1388.73 541.96" stroke="rgba(86, 10, 168, 1)" stroke-width="1.5"></path><path d="M1388.73 541.96L1448.42 689.61" stroke="rgba(86, 10, 168, 1)" stroke-width="1.5"></path><path d="M1388.73 541.96L1301.56 395.78" stroke="rgba(86, 10, 168, 1)" stroke-width="1.5"></path><path d="M1388.73 541.96L1574.62 531.53" stroke="rgba(86, 10, 168, 1)" stroke-width="1.5"></path><path d="M1448.42 689.61L1448.42 689.61" stroke="rgba(86, 10, 168, 1)" stroke-width="1.5"></path><path d="M1448.42 689.61L1606.19 710.9" stroke="rgba(86, 10, 168, 1)" stroke-width="1.5"></path><path d="M1572.29 -68.66L1572.29 -68.66" stroke="rgba(86, 10, 168, 1)" stroke-width="1.5"></path><path d="M1572.29 -68.66L1604.45 54.47" stroke="rgba(86, 10, 168, 1)" stroke-width="1.5"></path><path d="M1572.29 -68.66L1439.63 90.17" stroke="rgba(86, 10, 168, 1)" stroke-width="1.5"></path><path d="M1572.29 -68.66L1273.39 -44.66" stroke="rgba(86, 10, 168, 1)" stroke-width="1.5"></path><path d="M1572.29 -68.66L1309.67 101.29" stroke="rgba(86, 10, 168, 1)" stroke-width="1.5"></path><path d="M1604.45 54.47L1604.45 54.47" stroke="rgba(86, 10, 168, 1)" stroke-width="1.5"></path><path d="M1565.94 249.66L1565.94 249.66" stroke="rgba(86, 10, 168, 1)" stroke-width="1.5"></path><path d="M1565.94 249.66L1595.54 337.58" stroke="rgba(86, 10, 168, 1)" stroke-width="1.5"></path><path d="M1565.94 249.66L1412.34 342.92" stroke="rgba(86, 10, 168, 1)" stroke-width="1.5"></path><path d="M1595.54 337.58L1595.54 337.58" stroke="rgba(86, 10, 168, 1)" stroke-width="1.5"></path><path d="M1595.54 337.58L1412.34 342.92" stroke="rgba(86, 10, 168, 1)" stroke-width="1.5"></path><path d="M1574.62 531.53L1574.62 531.53" stroke="rgba(86, 10, 168, 1)" stroke-width="1.5"></path><path d="M1574.62 531.53L1606.19 710.9" stroke="rgba(86, 10, 168, 1)" stroke-width="1.5"></path><path d="M1574.62 531.53L1595.54 337.58" stroke="rgba(86, 10, 168, 1)" stroke-width="1.5"></path><path d="M1574.62 531.53L1448.42 689.61" stroke="rgba(86, 10, 168, 1)" stroke-width="1.5"></path><path d="M1574.62 531.53L1412.34 342.92" stroke="rgba(86, 10, 168, 1)" stroke-width="1.5"></path><path d="M1606.19 710.9L1606.19 710.9" stroke="rgba(86, 10, 168, 1)" stroke-width="1.5"></path><path d="M1606.19 710.9L1388.73 541.96" stroke="rgba(86, 10, 168, 1)" stroke-width="1.5"></path><path d="M1606.19 710.9L1263.49 711.05" stroke="rgba(86, 10, 168, 1)" stroke-width="1.5"></path><path d="M1606.19 710.9L1595.54 337.58" stroke="rgba(86, 10, 168, 1)" stroke-width="1.5"></path><path d="M1606.19 710.9L1261.1 515.39" stroke="rgba(86, 10, 168, 1)" stroke-width="1.5"></path><circle r="5" cx="-46.7" cy="372.16" fill="rgba(86, 10, 168, 1)"></circle><circle r="5" cx="-107.28" cy="488.43" fill="rgba(86, 10, 168, 1)"></circle><circle r="5" cx="-93.82" cy="707.48" fill="rgba(86, 10, 168, 1)"></circle><circle r="5" cx="108.39" cy="545.64" fill="rgba(86, 10, 168, 1)"></circle><circle r="5" cx="54.37" cy="670.8" fill="rgba(86, 10, 168, 1)"></circle><circle r="5" cx="194.75" cy="383.59" fill="rgba(86, 10, 168, 1)"></circle><circle r="5" cx="188.98" cy="544.06" fill="rgba(86, 10, 168, 1)"></circle><circle r="5" cx="379.73" cy="387.48" fill="rgba(86, 10, 168, 1)"></circle><circle r="5" cx="349.55" cy="522.74" fill="rgba(86, 10, 168, 1)"></circle><circle r="5" cx="359.14" cy="647.7" fill="rgba(86, 10, 168, 1)"></circle><circle r="5" cx="513.64" cy="341" fill="rgba(86, 10, 168, 1)"></circle><circle r="5" cx="550.79" cy="539.33" fill="rgba(86, 10, 168, 1)"></circle><circle r="5" cx="491.01" cy="639.88" fill="rgba(86, 10, 168, 1)"></circle><circle r="5" cx="682.62" cy="236.18" fill="rgba(86, 10, 168, 1)"></circle><circle r="5" cx="638.26" cy="357.91" fill="rgba(86, 10, 168, 1)"></circle><circle r="5" cx="693.11" cy="487.55" fill="rgba(86, 10, 168, 1)"></circle><circle r="5" cx="641.44" cy="709.94" fill="rgba(86, 10, 168, 1)"></circle><circle r="5" cx="819.66" cy="214.51" fill="rgba(86, 10, 168, 1)"></circle><circle r="5" cx="835.97" cy="378.08" fill="rgba(86, 10, 168, 1)"></circle><circle r="5" cx="847.14" cy="519.59" fill="rgba(86, 10, 168, 1)"></circle><circle r="5" cx="846.96" cy="673.69" fill="rgba(86, 10, 168, 1)"></circle><circle r="5" cx="994.94" cy="-70.42" fill="rgba(86, 10, 168, 1)"></circle><circle r="5" cx="1001.93" cy="102.57" fill="rgba(86, 10, 168, 1)"></circle><circle r="5" cx="1002.91" cy="215.72" fill="rgba(86, 10, 168, 1)"></circle><circle r="5" cx="940.09" cy="355.69" fill="rgba(86, 10, 168, 1)"></circle><circle r="5" cx="1005.23" cy="504.91" fill="rgba(86, 10, 168, 1)"></circle><circle r="5" cx="1001.25" cy="700.57" fill="rgba(86, 10, 168, 1)"></circle><circle r="5" cx="1137.93" cy="-98.52" fill="rgba(86, 10, 168, 1)"></circle><circle r="5" cx="1146.41" cy="47.06" fill="rgba(86, 10, 168, 1)"></circle><circle r="5" cx="1100.35" cy="212.59" fill="rgba(86, 10, 168, 1)"></circle><circle r="5" cx="1159.73" cy="406.25" fill="rgba(86, 10, 168, 1)"></circle><circle r="5" cx="1148.85" cy="655.79" fill="rgba(86, 10, 168, 1)"></circle><circle r="5" cx="1273.39" cy="-44.66" fill="rgba(86, 10, 168, 1)"></circle><circle r="5" cx="1309.67" cy="101.29" fill="rgba(86, 10, 168, 1)"></circle><circle r="5" cx="1301.56" cy="395.78" fill="rgba(86, 10, 168, 1)"></circle><circle r="5" cx="1261.1" cy="515.39" fill="rgba(86, 10, 168, 1)"></circle><circle r="5" cx="1263.49" cy="711.05" fill="rgba(86, 10, 168, 1)"></circle><circle r="5" cx="1444.15" cy="-78.55" fill="rgba(86, 10, 168, 1)"></circle><circle r="5" cx="1439.63" cy="90.17" fill="rgba(86, 10, 168, 1)"></circle><circle r="5" cx="1445.84" cy="220.38" fill="rgba(86, 10, 168, 1)"></circle><circle r="5" cx="1412.34" cy="342.92" fill="rgba(86, 10, 168, 1)"></circle><circle r="5" cx="1388.73" cy="541.96" fill="rgba(86, 10, 168, 1)"></circle><circle r="5" cx="1448.42" cy="689.61" fill="rgba(86, 10, 168, 1)"></circle><circle r="5" cx="1572.29" cy="-68.66" fill="rgba(86, 10, 168, 1)"></circle><circle r="5" cx="1604.45" cy="54.47" fill="rgba(86, 10, 168, 1)"></circle><circle r="5" cx="1565.94" cy="249.66" fill="rgba(86, 10, 168, 1)"></circle><circle r="5" cx="1595.54" cy="337.58" fill="rgba(86, 10, 168, 1)"></circle><circle r="5" cx="1574.62" cy="531.53" fill="rgba(86, 10, 168, 1)"></circle><circle r="5" cx="1606.19" cy="710.9" fill="rgba(86, 10, 168, 1)"></circle><path d="M216.45 682.41L216.45 682.41" stroke="hsl(264.79999999999995, 70.8%, 74.2%)" stroke-width="1.5"></path><path d="M216.45 682.41L234.83 521.62" stroke="hsl(264.79999999999995, 70.8%, 74.2%)" stroke-width="1.5"></path><path d="M397.39 556.25L397.39 556.25" stroke="hsl(264.79999999999995, 70.8%, 74.2%)" stroke-width="1.5"></path><path d="M397.39 556.25L394.24 696.97" stroke="hsl(264.79999999999995, 70.8%, 74.2%)" stroke-width="1.5"></path><path d="M397.39 556.25L234.83 521.62" stroke="hsl(264.79999999999995, 70.8%, 74.2%)" stroke-width="1.5"></path><path d="M397.39 556.25L561.76 525.6" stroke="hsl(264.79999999999995, 70.8%, 74.2%)" stroke-width="1.5"></path><path d="M397.39 556.25L525.97 664.12" stroke="hsl(264.79999999999995, 70.8%, 74.2%)" stroke-width="1.5"></path><path d="M397.39 556.25L514.47 402.57" stroke="hsl(264.79999999999995, 70.8%, 74.2%)" stroke-width="1.5"></path><path d="M859.47 683.9L859.47 683.9" stroke="hsl(264.79999999999995, 70.8%, 74.2%)" stroke-width="1.5"></path><path d="M859.47 683.9L1000.32 694.62" stroke="hsl(264.79999999999995, 70.8%, 74.2%)" stroke-width="1.5"></path><path d="M978.17 244.86L978.17 244.86" stroke="hsl(264.79999999999995, 70.8%, 74.2%)" stroke-width="1.5"></path><path d="M978.17 244.86L1097.68 215.97" stroke="hsl(264.79999999999995, 70.8%, 74.2%)" stroke-width="1.5"></path><path d="M978.17 244.86L1097.4 357.37" stroke="hsl(264.79999999999995, 70.8%, 74.2%)" stroke-width="1.5"></path><path d="M978.17 244.86L972.53 409.62" stroke="hsl(264.79999999999995, 70.8%, 74.2%)" stroke-width="1.5"></path><path d="M978.17 244.86L831.79 339.81" stroke="hsl(264.79999999999995, 70.8%, 74.2%)" stroke-width="1.5"></path><path d="M1281.48 70.37L1281.48 70.37" stroke="hsl(264.79999999999995, 70.8%, 74.2%)" stroke-width="1.5"></path><path d="M1281.48 70.37L1248.88 -87.73" stroke="hsl(264.79999999999995, 70.8%, 74.2%)" stroke-width="1.5"></path><path d="M1281.48 70.37L1459.62 54.58" stroke="hsl(264.79999999999995, 70.8%, 74.2%)" stroke-width="1.5"></path><path d="M1281.48 70.37L1243.47 251.9" stroke="hsl(264.79999999999995, 70.8%, 74.2%)" stroke-width="1.5"></path><path d="M1281.48 70.37L1444.5 193.43" stroke="hsl(264.79999999999995, 70.8%, 74.2%)" stroke-width="1.5"></path><path d="M1281.48 70.37L1461.9 -69.24" stroke="hsl(264.79999999999995, 70.8%, 74.2%)" stroke-width="1.5"></path><path d="M1461.9 -69.24L1461.9 -69.24" stroke="hsl(264.79999999999995, 70.8%, 74.2%)" stroke-width="1.5"></path><path d="M1461.9 -69.24L1459.62 54.58" stroke="hsl(264.79999999999995, 70.8%, 74.2%)" stroke-width="1.5"></path><path d="M1461.9 -69.24L1602.92 -52.08" stroke="hsl(264.79999999999995, 70.8%, 74.2%)" stroke-width="1.5"></path><path d="M1461.9 -69.24L1553.48 69.27" stroke="hsl(264.79999999999995, 70.8%, 74.2%)" stroke-width="1.5"></path><path d="M1461.9 -69.24L1248.88 -87.73" stroke="hsl(264.79999999999995, 70.8%, 74.2%)" stroke-width="1.5"></path><path d="M1459.62 54.58L1459.62 54.58" stroke="hsl(264.79999999999995, 70.8%, 74.2%)" stroke-width="1.5"></path><path d="M1459.62 54.58L1553.48 69.27" stroke="hsl(264.79999999999995, 70.8%, 74.2%)" stroke-width="1.5"></path><path d="M1389.3 384.84L1389.3 384.84" stroke="hsl(264.79999999999995, 70.8%, 74.2%)" stroke-width="1.5"></path><path d="M1389.3 384.84L1269.37 338.62" stroke="hsl(264.79999999999995, 70.8%, 74.2%)" stroke-width="1.5"></path><path d="M1389.3 384.84L1416.05 518.94" stroke="hsl(264.79999999999995, 70.8%, 74.2%)" stroke-width="1.5"></path><path d="M1389.3 384.84L1303.7 543.32" stroke="hsl(264.79999999999995, 70.8%, 74.2%)" stroke-width="1.5"></path><path d="M1389.3 384.84L1243.47 251.9" stroke="hsl(264.79999999999995, 70.8%, 74.2%)" stroke-width="1.5"></path><path d="M1602.92 -52.08L1602.92 -52.08" stroke="hsl(264.79999999999995, 70.8%, 74.2%)" stroke-width="1.5"></path><path d="M1602.92 -52.08L1553.48 69.27" stroke="hsl(264.79999999999995, 70.8%, 74.2%)" stroke-width="1.5"></path><path d="M1602.92 -52.08L1459.62 54.58" stroke="hsl(264.79999999999995, 70.8%, 74.2%)" stroke-width="1.5"></path><path d="M1602.92 -52.08L1444.5 193.43" stroke="hsl(264.79999999999995, 70.8%, 74.2%)" stroke-width="1.5"></path><path d="M1602.92 -52.08L1598.96 245.17" stroke="hsl(264.79999999999995, 70.8%, 74.2%)" stroke-width="1.5"></path><path d="M1602.92 -52.08L1281.48 70.37" stroke="hsl(264.79999999999995, 70.8%, 74.2%)" stroke-width="1.5"></path><path d="M1598.96 245.17L1598.96 245.17" stroke="hsl(264.79999999999995, 70.8%, 74.2%)" stroke-width="1.5"></path><path d="M1598.96 245.17L1586.91 370.53" stroke="hsl(264.79999999999995, 70.8%, 74.2%)" stroke-width="1.5"></path><path d="M1598.96 245.17L1444.5 193.43" stroke="hsl(264.79999999999995, 70.8%, 74.2%)" stroke-width="1.5"></path><path d="M1598.96 245.17L1553.48 69.27" stroke="hsl(264.79999999999995, 70.8%, 74.2%)" stroke-width="1.5"></path><path d="M1598.96 245.17L1459.62 54.58" stroke="hsl(264.79999999999995, 70.8%, 74.2%)" stroke-width="1.5"></path><path d="M1598.96 245.17L1609.39 488.44" stroke="hsl(264.79999999999995, 70.8%, 74.2%)" stroke-width="1.5"></path><path d="M1586.91 370.53L1586.91 370.53" stroke="hsl(264.79999999999995, 70.8%, 74.2%)" stroke-width="1.5"></path><path d="M1586.91 370.53L1609.39 488.44" stroke="hsl(264.79999999999995, 70.8%, 74.2%)" stroke-width="1.5"></path><path d="M1586.91 370.53L1389.3 384.84" stroke="hsl(264.79999999999995, 70.8%, 74.2%)" stroke-width="1.5"></path><path d="M-91.03 493.1L-91.03 493.1" stroke="hsl(264.79999999999995, 70.8%, 74.2%)" stroke-width="1.5"></path><path d="M-91.03 493.1L55.84 493.39" stroke="hsl(264.79999999999995, 70.8%, 74.2%)" stroke-width="1.5"></path><path d="M-91.03 493.1L-79.52 692.83" stroke="hsl(264.79999999999995, 70.8%, 74.2%)" stroke-width="1.5"></path><path d="M-79.52 692.83L-79.52 692.83" stroke="hsl(264.79999999999995, 70.8%, 74.2%)" stroke-width="1.5"></path><path d="M-79.52 692.83L43.36 688.06" stroke="hsl(264.79999999999995, 70.8%, 74.2%)" stroke-width="1.5"></path><path d="M-79.52 692.83L55.84 493.39" stroke="hsl(264.79999999999995, 70.8%, 74.2%)" stroke-width="1.5"></path><path d="M-79.52 692.83L216.45 682.41" stroke="hsl(264.79999999999995, 70.8%, 74.2%)" stroke-width="1.5"></path><path d="M55.84 493.39L55.84 493.39" stroke="hsl(264.79999999999995, 70.8%, 74.2%)" stroke-width="1.5"></path><path d="M55.84 493.39L234.83 521.62" stroke="hsl(264.79999999999995, 70.8%, 74.2%)" stroke-width="1.5"></path><path d="M43.36 688.06L43.36 688.06" stroke="hsl(264.79999999999995, 70.8%, 74.2%)" stroke-width="1.5"></path><path d="M43.36 688.06L216.45 682.41" stroke="hsl(264.79999999999995, 70.8%, 74.2%)" stroke-width="1.5"></path><path d="M43.36 688.06L55.84 493.39" stroke="hsl(264.79999999999995, 70.8%, 74.2%)" stroke-width="1.5"></path><path d="M43.36 688.06L-91.03 493.1" stroke="hsl(264.79999999999995, 70.8%, 74.2%)" stroke-width="1.5"></path><path d="M234.83 521.62L234.83 521.62" stroke="hsl(264.79999999999995, 70.8%, 74.2%)" stroke-width="1.5"></path><path d="M394.24 696.97L394.24 696.97" stroke="hsl(264.79999999999995, 70.8%, 74.2%)" stroke-width="1.5"></path><path d="M394.24 696.97L525.97 664.12" stroke="hsl(264.79999999999995, 70.8%, 74.2%)" stroke-width="1.5"></path><path d="M394.24 696.97L216.45 682.41" stroke="hsl(264.79999999999995, 70.8%, 74.2%)" stroke-width="1.5"></path><path d="M514.47 402.57L514.47 402.57" stroke="hsl(264.79999999999995, 70.8%, 74.2%)" stroke-width="1.5"></path><path d="M514.47 402.57L561.76 525.6" stroke="hsl(264.79999999999995, 70.8%, 74.2%)" stroke-width="1.5"></path><path d="M514.47 402.57L703.47 402.26" stroke="hsl(264.79999999999995, 70.8%, 74.2%)" stroke-width="1.5"></path><path d="M514.47 402.57L704.57 549.45" stroke="hsl(264.79999999999995, 70.8%, 74.2%)" stroke-width="1.5"></path><path d="M514.47 402.57L525.97 664.12" stroke="hsl(264.79999999999995, 70.8%, 74.2%)" stroke-width="1.5"></path><path d="M514.47 402.57L234.83 521.62" stroke="hsl(264.79999999999995, 70.8%, 74.2%)" stroke-width="1.5"></path><path d="M561.76 525.6L561.76 525.6" stroke="hsl(264.79999999999995, 70.8%, 74.2%)" stroke-width="1.5"></path><path d="M561.76 525.6L525.97 664.12" stroke="hsl(264.79999999999995, 70.8%, 74.2%)" stroke-width="1.5"></path><path d="M561.76 525.6L704.57 549.45" stroke="hsl(264.79999999999995, 70.8%, 74.2%)" stroke-width="1.5"></path><path d="M525.97 664.12L525.97 664.12" stroke="hsl(264.79999999999995, 70.8%, 74.2%)" stroke-width="1.5"></path><path d="M703.47 402.26L703.47 402.26" stroke="hsl(264.79999999999995, 70.8%, 74.2%)" stroke-width="1.5"></path><path d="M703.47 402.26L831.79 339.81" stroke="hsl(264.79999999999995, 70.8%, 74.2%)" stroke-width="1.5"></path><path d="M703.47 402.26L704.57 549.45" stroke="hsl(264.79999999999995, 70.8%, 74.2%)" stroke-width="1.5"></path><path d="M703.47 402.26L809.79 504.62" stroke="hsl(264.79999999999995, 70.8%, 74.2%)" stroke-width="1.5"></path><path d="M704.57 549.45L704.57 549.45" stroke="hsl(264.79999999999995, 70.8%, 74.2%)" stroke-width="1.5"></path><path d="M704.57 549.45L809.79 504.62" stroke="hsl(264.79999999999995, 70.8%, 74.2%)" stroke-width="1.5"></path><path d="M705.83 707.28L705.83 707.28" stroke="hsl(264.79999999999995, 70.8%, 74.2%)" stroke-width="1.5"></path><path d="M705.83 707.28L859.47 683.9" stroke="hsl(264.79999999999995, 70.8%, 74.2%)" stroke-width="1.5"></path><path d="M705.83 707.28L704.57 549.45" stroke="hsl(264.79999999999995, 70.8%, 74.2%)" stroke-width="1.5"></path><path d="M705.83 707.28L525.97 664.12" stroke="hsl(264.79999999999995, 70.8%, 74.2%)" stroke-width="1.5"></path><path d="M705.83 707.28L809.79 504.62" stroke="hsl(264.79999999999995, 70.8%, 74.2%)" stroke-width="1.5"></path><path d="M705.83 707.28L561.76 525.6" stroke="hsl(264.79999999999995, 70.8%, 74.2%)" stroke-width="1.5"></path><path d="M705.83 707.28L1000.32 694.62" stroke="hsl(264.79999999999995, 70.8%, 74.2%)" stroke-width="1.5"></path><path d="M831.79 339.81L831.79 339.81" stroke="hsl(264.79999999999995, 70.8%, 74.2%)" stroke-width="1.5"></path><path d="M831.79 339.81L972.53 409.62" stroke="hsl(264.79999999999995, 70.8%, 74.2%)" stroke-width="1.5"></path><path d="M809.79 504.62L809.79 504.62" stroke="hsl(264.79999999999995, 70.8%, 74.2%)" stroke-width="1.5"></path><path d="M972.53 409.62L972.53 409.62" stroke="hsl(264.79999999999995, 70.8%, 74.2%)" stroke-width="1.5"></path><path d="M972.53 409.62L964.02 521.4" stroke="hsl(264.79999999999995, 70.8%, 74.2%)" stroke-width="1.5"></path><path d="M972.53 409.62L1097.4 357.37" stroke="hsl(264.79999999999995, 70.8%, 74.2%)" stroke-width="1.5"></path><path d="M964.02 521.4L964.02 521.4" stroke="hsl(264.79999999999995, 70.8%, 74.2%)" stroke-width="1.5"></path><path d="M964.02 521.4L809.79 504.62" stroke="hsl(264.79999999999995, 70.8%, 74.2%)" stroke-width="1.5"></path><path d="M964.02 521.4L1129.88 490.55" stroke="hsl(264.79999999999995, 70.8%, 74.2%)" stroke-width="1.5"></path><path d="M964.02 521.4L1000.32 694.62" stroke="hsl(264.79999999999995, 70.8%, 74.2%)" stroke-width="1.5"></path><path d="M964.02 521.4L1097.38 653.3" stroke="hsl(264.79999999999995, 70.8%, 74.2%)" stroke-width="1.5"></path><path d="M1000.32 694.62L1000.32 694.62" stroke="hsl(264.79999999999995, 70.8%, 74.2%)" stroke-width="1.5"></path><path d="M1000.32 694.62L1097.38 653.3" stroke="hsl(264.79999999999995, 70.8%, 74.2%)" stroke-width="1.5"></path><path d="M1000.32 694.62L1129.88 490.55" stroke="hsl(264.79999999999995, 70.8%, 74.2%)" stroke-width="1.5"></path><path d="M1000.32 694.62L809.79 504.62" stroke="hsl(264.79999999999995, 70.8%, 74.2%)" stroke-width="1.5"></path><path d="M1097.68 215.97L1097.68 215.97" stroke="hsl(264.79999999999995, 70.8%, 74.2%)" stroke-width="1.5"></path><path d="M1097.68 215.97L1097.4 357.37" stroke="hsl(264.79999999999995, 70.8%, 74.2%)" stroke-width="1.5"></path><path d="M1097.68 215.97L1243.47 251.9" stroke="hsl(264.79999999999995, 70.8%, 74.2%)" stroke-width="1.5"></path><path d="M1097.68 215.97L1269.37 338.62" stroke="hsl(264.79999999999995, 70.8%, 74.2%)" stroke-width="1.5"></path><path d="M1097.68 215.97L972.53 409.62" stroke="hsl(264.79999999999995, 70.8%, 74.2%)" stroke-width="1.5"></path><path d="M1097.68 215.97L1281.48 70.37" stroke="hsl(264.79999999999995, 70.8%, 74.2%)" stroke-width="1.5"></path><path d="M1097.4 357.37L1097.4 357.37" stroke="hsl(264.79999999999995, 70.8%, 74.2%)" stroke-width="1.5"></path><path d="M1129.88 490.55L1129.88 490.55" stroke="hsl(264.79999999999995, 70.8%, 74.2%)" stroke-width="1.5"></path><path d="M1129.88 490.55L1097.4 357.37" stroke="hsl(264.79999999999995, 70.8%, 74.2%)" stroke-width="1.5"></path><path d="M1129.88 490.55L1097.38 653.3" stroke="hsl(264.79999999999995, 70.8%, 74.2%)" stroke-width="1.5"></path><path d="M1129.88 490.55L972.53 409.62" stroke="hsl(264.79999999999995, 70.8%, 74.2%)" stroke-width="1.5"></path><path d="M1129.88 490.55L1303.7 543.32" stroke="hsl(264.79999999999995, 70.8%, 74.2%)" stroke-width="1.5"></path><path d="M1129.88 490.55L1269.37 338.62" stroke="hsl(264.79999999999995, 70.8%, 74.2%)" stroke-width="1.5"></path><path d="M1097.38 653.3L1097.38 653.3" stroke="hsl(264.79999999999995, 70.8%, 74.2%)" stroke-width="1.5"></path><path d="M1097.38 653.3L1312.39 660.5" stroke="hsl(264.79999999999995, 70.8%, 74.2%)" stroke-width="1.5"></path><path d="M1097.38 653.3L1303.7 543.32" stroke="hsl(264.79999999999995, 70.8%, 74.2%)" stroke-width="1.5"></path><path d="M1248.88 -87.73L1248.88 -87.73" stroke="hsl(264.79999999999995, 70.8%, 74.2%)" stroke-width="1.5"></path><path d="M1248.88 -87.73L1459.62 54.58" stroke="hsl(264.79999999999995, 70.8%, 74.2%)" stroke-width="1.5"></path><path d="M1248.88 -87.73L1097.68 215.97" stroke="hsl(264.79999999999995, 70.8%, 74.2%)" stroke-width="1.5"></path><path d="M1243.47 251.9L1243.47 251.9" stroke="hsl(264.79999999999995, 70.8%, 74.2%)" stroke-width="1.5"></path><path d="M1243.47 251.9L1269.37 338.62" stroke="hsl(264.79999999999995, 70.8%, 74.2%)" stroke-width="1.5"></path><path d="M1243.47 251.9L1097.4 357.37" stroke="hsl(264.79999999999995, 70.8%, 74.2%)" stroke-width="1.5"></path><path d="M1269.37 338.62L1269.37 338.62" stroke="hsl(264.79999999999995, 70.8%, 74.2%)" stroke-width="1.5"></path><path d="M1269.37 338.62L1097.4 357.37" stroke="hsl(264.79999999999995, 70.8%, 74.2%)" stroke-width="1.5"></path><path d="M1269.37 338.62L1303.7 543.32" stroke="hsl(264.79999999999995, 70.8%, 74.2%)" stroke-width="1.5"></path><path d="M1303.7 543.32L1303.7 543.32" stroke="hsl(264.79999999999995, 70.8%, 74.2%)" stroke-width="1.5"></path><path d="M1303.7 543.32L1416.05 518.94" stroke="hsl(264.79999999999995, 70.8%, 74.2%)" stroke-width="1.5"></path><path d="M1303.7 543.32L1312.39 660.5" stroke="hsl(264.79999999999995, 70.8%, 74.2%)" stroke-width="1.5"></path><path d="M1312.39 660.5L1312.39 660.5" stroke="hsl(264.79999999999995, 70.8%, 74.2%)" stroke-width="1.5"></path><path d="M1444.5 193.43L1444.5 193.43" stroke="hsl(264.79999999999995, 70.8%, 74.2%)" stroke-width="1.5"></path><path d="M1444.5 193.43L1459.62 54.58" stroke="hsl(264.79999999999995, 70.8%, 74.2%)" stroke-width="1.5"></path><path d="M1416.05 518.94L1416.05 518.94" stroke="hsl(264.79999999999995, 70.8%, 74.2%)" stroke-width="1.5"></path><path d="M1416.05 518.94L1440.64 666.07" stroke="hsl(264.79999999999995, 70.8%, 74.2%)" stroke-width="1.5"></path><path d="M1440.64 666.07L1440.64 666.07" stroke="hsl(264.79999999999995, 70.8%, 74.2%)" stroke-width="1.5"></path><path d="M1440.64 666.07L1562.97 694.67" stroke="hsl(264.79999999999995, 70.8%, 74.2%)" stroke-width="1.5"></path><path d="M1440.64 666.07L1312.39 660.5" stroke="hsl(264.79999999999995, 70.8%, 74.2%)" stroke-width="1.5"></path><path d="M1440.64 666.07L1303.7 543.32" stroke="hsl(264.79999999999995, 70.8%, 74.2%)" stroke-width="1.5"></path><path d="M1440.64 666.07L1609.39 488.44" stroke="hsl(264.79999999999995, 70.8%, 74.2%)" stroke-width="1.5"></path><path d="M1553.48 69.27L1553.48 69.27" stroke="hsl(264.79999999999995, 70.8%, 74.2%)" stroke-width="1.5"></path><path d="M1609.39 488.44L1609.39 488.44" stroke="hsl(264.79999999999995, 70.8%, 74.2%)" stroke-width="1.5"></path><path d="M1609.39 488.44L1416.05 518.94" stroke="hsl(264.79999999999995, 70.8%, 74.2%)" stroke-width="1.5"></path><path d="M1609.39 488.44L1562.97 694.67" stroke="hsl(264.79999999999995, 70.8%, 74.2%)" stroke-width="1.5"></path><path d="M1562.97 694.67L1562.97 694.67" stroke="hsl(264.79999999999995, 70.8%, 74.2%)" stroke-width="1.5"></path><path d="M1562.97 694.67L1416.05 518.94" stroke="hsl(264.79999999999995, 70.8%, 74.2%)" stroke-width="1.5"></path><path d="M1562.97 694.67L1312.39 660.5" stroke="hsl(264.79999999999995, 70.8%, 74.2%)" stroke-width="1.5"></path><circle r="25" cx="216.45" cy="682.41" fill="url(&quot;#SvgjsRadialGradient1039&quot;)"></circle><circle r="25" cx="397.39" cy="556.25" fill="url(&quot;#SvgjsRadialGradient1039&quot;)"></circle><circle r="25" cx="859.47" cy="683.9" fill="url(&quot;#SvgjsRadialGradient1039&quot;)"></circle><circle r="25" cx="978.17" cy="244.86" fill="url(&quot;#SvgjsRadialGradient1039&quot;)"></circle><circle r="25" cx="1281.48" cy="70.37" fill="url(&quot;#SvgjsRadialGradient1039&quot;)"></circle><circle r="25" cx="1461.9" cy="-69.24" fill="url(&quot;#SvgjsRadialGradient1039&quot;)"></circle><circle r="25" cx="1459.62" cy="54.58" fill="url(&quot;#SvgjsRadialGradient1039&quot;)"></circle><circle r="25" cx="1389.3" cy="384.84" fill="url(&quot;#SvgjsRadialGradient1039&quot;)"></circle><circle r="25" cx="1602.92" cy="-52.08" fill="url(&quot;#SvgjsRadialGradient1039&quot;)"></circle><circle r="25" cx="1598.96" cy="245.17" fill="url(&quot;#SvgjsRadialGradient1039&quot;)"></circle><circle r="25" cx="1586.91" cy="370.53" fill="url(&quot;#SvgjsRadialGradient1039&quot;)"></circle><circle r="5" cx="-91.03" cy="493.1" fill="#c2a2ef"></circle><circle r="5" cx="-79.52" cy="692.83" fill="#c2a2ef"></circle><circle r="5" cx="55.84" cy="493.39" fill="#c2a2ef"></circle><circle r="5" cx="43.36" cy="688.06" fill="#c2a2ef"></circle><circle r="5" cx="234.83" cy="521.62" fill="#c2a2ef"></circle><circle r="5" cx="394.24" cy="696.97" fill="#c2a2ef"></circle><circle r="5" cx="514.47" cy="402.57" fill="#c2a2ef"></circle><circle r="5" cx="561.76" cy="525.6" fill="#c2a2ef"></circle><circle r="5" cx="525.97" cy="664.12" fill="#c2a2ef"></circle><circle r="5" cx="703.47" cy="402.26" fill="#c2a2ef"></circle><circle r="5" cx="704.57" cy="549.45" fill="#c2a2ef"></circle><circle r="5" cx="705.83" cy="707.28" fill="#c2a2ef"></circle><circle r="5" cx="831.79" cy="339.81" fill="#c2a2ef"></circle><circle r="5" cx="809.79" cy="504.62" fill="#c2a2ef"></circle><circle r="5" cx="972.53" cy="409.62" fill="#c2a2ef"></circle><circle r="5" cx="964.02" cy="521.4" fill="#c2a2ef"></circle><circle r="5" cx="1000.32" cy="694.62" fill="#c2a2ef"></circle><circle r="5" cx="1097.68" cy="215.97" fill="#c2a2ef"></circle><circle r="5" cx="1097.4" cy="357.37" fill="#c2a2ef"></circle><circle r="5" cx="1129.88" cy="490.55" fill="#c2a2ef"></circle><circle r="5" cx="1097.38" cy="653.3" fill="#c2a2ef"></circle><circle r="5" cx="1248.88" cy="-87.73" fill="#c2a2ef"></circle><circle r="5" cx="1243.47" cy="251.9" fill="#c2a2ef"></circle><circle r="5" cx="1269.37" cy="338.62" fill="#c2a2ef"></circle><circle r="5" cx="1303.7" cy="543.32" fill="#c2a2ef"></circle><circle r="5" cx="1312.39" cy="660.5" fill="#c2a2ef"></circle><circle r="5" cx="1444.5" cy="193.43" fill="#c2a2ef"></circle><circle r="5" cx="1416.05" cy="518.94" fill="#c2a2ef"></circle><circle r="5" cx="1440.64" cy="666.07" fill="#c2a2ef"></circle><circle r="5" cx="1553.48" cy="69.27" fill="#c2a2ef"></circle><circle r="5" cx="1609.39" cy="488.44" fill="#c2a2ef"></circle><circle r="5" cx="1562.97" cy="694.67" fill="#c2a2ef"></circle></g><defs><mask id="SvgjsMask1038"><rect width="1440" height="560" fill="#ffffff"></rect></mask><radialGradient id="SvgjsRadialGradient1039"><stop stop-color="#ffffff" offset="0.1"></stop><stop stop-color="rgba(132, 68, 223, 1)" offset="0.2"></stop><stop stop-color="rgba(132, 68, 223, 0)" offset="1"></stop></radialGradient></defs></svg>