<svg xmlns="http://www.w3.org/2000/svg" version="1.1" xmlns:xlink="http://www.w3.org/1999/xlink" xmlns:svgjs="http://svgjs.dev/svgjs" width="1440" height="560" preserveAspectRatio="none" viewBox="0 0 1440 560"><g mask="url(&quot;#SvgjsMask1156&quot;)" fill="none"><rect width="1440" height="560" x="0" y="0" fill="rgba(255, 255, 255, 1)"></rect><path d="M 0,40 C 96,67.2 288,173.2 480,176 C 672,178.8 768,58 960,54 C 1152,50 1344,135.6 1440,156L1440 560L0 560z" fill="rgba(49, 11, 66, 0.52)"></path><path d="M 0,261 C 144,265.4 432,297.2 720,283 C 1008,268.8 1296,208.6 1440,190L1440 560L0 560z" fill="rgba(49, 11, 66, 0.71)"></path><path d="M 0,513 C 144,499.2 432,446.8 720,444 C 1008,441.2 1296,488 1440,499L1440 560L0 560z" fill="rgba(49, 11, 66, 1)"></path></g><defs><mask id="SvgjsMask1156"><rect width="1440" height="560" fill="#ffffff"></rect></mask></defs></svg>